<mxfile host="app.diagrams.net" modified="2021-04-03T13:34:08.382Z" agent="5.0 (X11)" etag="oyDylVjUbuVfF2NN_-xG" version="14.5.6" type="github">
  <diagram id="WaGZ0EOCiviU_eJ5AUI1" name="Page-1">
    <mxGraphModel dx="2873" dy="1650" grid="1" gridSize="10" guides="1" tooltips="1" connect="1" arrows="1" fold="1" page="1" pageScale="1" pageWidth="1169" pageHeight="827" math="0" shadow="0">
      <root>
        <mxCell id="0" />
        <mxCell id="1" parent="0" />
        <mxCell id="sH1_CeJIT8sASiw-qS2--2" style="edgeStyle=orthogonalEdgeStyle;rounded=0;orthogonalLoop=1;jettySize=auto;html=1;entryX=0;entryY=0.5;entryDx=0;entryDy=0;" parent="1" source="sH1_CeJIT8sASiw-qS2--1" target="sH1_CeJIT8sASiw-qS2--4" edge="1">
          <mxGeometry relative="1" as="geometry">
            <mxPoint x="850" y="60" as="targetPoint" />
            <Array as="points">
              <mxPoint x="350" y="60" />
              <mxPoint x="350" y="60" />
            </Array>
          </mxGeometry>
        </mxCell>
        <mxCell id="sH1_CeJIT8sASiw-qS2--8" style="edgeStyle=orthogonalEdgeStyle;rounded=0;orthogonalLoop=1;jettySize=auto;html=1;entryX=0;entryY=0.5;entryDx=0;entryDy=0;" parent="1" source="sH1_CeJIT8sASiw-qS2--1" target="sH1_CeJIT8sASiw-qS2--6" edge="1">
          <mxGeometry relative="1" as="geometry">
            <Array as="points">
              <mxPoint x="320" y="60" />
              <mxPoint x="320" y="100" />
            </Array>
          </mxGeometry>
        </mxCell>
        <mxCell id="sH1_CeJIT8sASiw-qS2--11" style="edgeStyle=orthogonalEdgeStyle;rounded=0;orthogonalLoop=1;jettySize=auto;html=1;entryX=0;entryY=0.5;entryDx=0;entryDy=0;" parent="1" source="sH1_CeJIT8sASiw-qS2--1" target="sH1_CeJIT8sASiw-qS2--10" edge="1">
          <mxGeometry relative="1" as="geometry">
            <Array as="points">
              <mxPoint x="320" y="60" />
              <mxPoint x="320" y="150" />
            </Array>
          </mxGeometry>
        </mxCell>
        <mxCell id="sH1_CeJIT8sASiw-qS2--15" style="edgeStyle=orthogonalEdgeStyle;rounded=0;orthogonalLoop=1;jettySize=auto;html=1;entryX=0;entryY=0.5;entryDx=0;entryDy=0;" parent="1" source="sH1_CeJIT8sASiw-qS2--1" target="sH1_CeJIT8sASiw-qS2--14" edge="1">
          <mxGeometry relative="1" as="geometry" />
        </mxCell>
        <mxCell id="sH1_CeJIT8sASiw-qS2--1" value="Library" style="rounded=1;whiteSpace=wrap;html=1;" parent="1" vertex="1">
          <mxGeometry x="40" y="40" width="80" height="40" as="geometry" />
        </mxCell>
        <mxCell id="sH1_CeJIT8sASiw-qS2--4" value="END" style="rounded=0;whiteSpace=wrap;html=1;" parent="1" vertex="1">
          <mxGeometry x="1040" y="40" width="80" height="40" as="geometry" />
        </mxCell>
        <mxCell id="sH1_CeJIT8sASiw-qS2--9" style="edgeStyle=orthogonalEdgeStyle;rounded=0;orthogonalLoop=1;jettySize=auto;html=1;" parent="1" source="sH1_CeJIT8sASiw-qS2--6" edge="1">
          <mxGeometry relative="1" as="geometry">
            <mxPoint x="840" y="60" as="targetPoint" />
          </mxGeometry>
        </mxCell>
        <mxCell id="sH1_CeJIT8sASiw-qS2--30" style="edgeStyle=orthogonalEdgeStyle;rounded=0;orthogonalLoop=1;jettySize=auto;html=1;" parent="1" source="sH1_CeJIT8sASiw-qS2--6" edge="1">
          <mxGeometry relative="1" as="geometry">
            <mxPoint x="320" y="200" as="targetPoint" />
            <Array as="points">
              <mxPoint x="840" y="100" />
              <mxPoint x="840" y="250" />
            </Array>
          </mxGeometry>
        </mxCell>
        <mxCell id="sH1_CeJIT8sASiw-qS2--6" value="on&lt;br&gt;declaration" style="rounded=1;whiteSpace=wrap;html=1;" parent="1" vertex="1">
          <mxGeometry x="520" y="80" width="80" height="40" as="geometry" />
        </mxCell>
        <mxCell id="sH1_CeJIT8sASiw-qS2--12" style="edgeStyle=orthogonalEdgeStyle;rounded=0;orthogonalLoop=1;jettySize=auto;html=1;" parent="1" source="sH1_CeJIT8sASiw-qS2--10" edge="1">
          <mxGeometry relative="1" as="geometry">
            <mxPoint x="840" y="60" as="targetPoint" />
          </mxGeometry>
        </mxCell>
        <mxCell id="sH1_CeJIT8sASiw-qS2--10" value="process&lt;br&gt;declaration" style="rounded=1;whiteSpace=wrap;html=1;" parent="1" vertex="1">
          <mxGeometry x="520" y="130" width="80" height="40" as="geometry" />
        </mxCell>
        <mxCell id="sH1_CeJIT8sASiw-qS2--16" style="edgeStyle=orthogonalEdgeStyle;rounded=0;orthogonalLoop=1;jettySize=auto;html=1;" parent="1" source="sH1_CeJIT8sASiw-qS2--14" edge="1">
          <mxGeometry relative="1" as="geometry">
            <mxPoint x="840" y="60" as="targetPoint" />
          </mxGeometry>
        </mxCell>
        <mxCell id="sH1_CeJIT8sASiw-qS2--14" value="function&lt;br&gt;declaration" style="rounded=1;whiteSpace=wrap;html=1;" parent="1" vertex="1">
          <mxGeometry x="520" y="180" width="80" height="40" as="geometry" />
        </mxCell>
        <mxCell id="sH1_CeJIT8sASiw-qS2--24" style="edgeStyle=orthogonalEdgeStyle;rounded=0;orthogonalLoop=1;jettySize=auto;html=1;entryX=0;entryY=0.5;entryDx=0;entryDy=0;" parent="1" source="sH1_CeJIT8sASiw-qS2--20" target="sH1_CeJIT8sASiw-qS2--23" edge="1">
          <mxGeometry relative="1" as="geometry" />
        </mxCell>
        <mxCell id="sH1_CeJIT8sASiw-qS2--20" value="Block" style="rounded=1;whiteSpace=wrap;html=1;" parent="1" vertex="1">
          <mxGeometry x="40" y="280" width="80" height="40" as="geometry" />
        </mxCell>
        <mxCell id="sH1_CeJIT8sASiw-qS2--84" style="edgeStyle=orthogonalEdgeStyle;rounded=0;orthogonalLoop=1;jettySize=auto;html=1;" parent="1" source="sH1_CeJIT8sASiw-qS2--22" edge="1">
          <mxGeometry relative="1" as="geometry">
            <mxPoint x="1040" y="300" as="targetPoint" />
          </mxGeometry>
        </mxCell>
        <mxCell id="sH1_CeJIT8sASiw-qS2--22" value="&lt;b&gt;Operator&lt;br&gt;&lt;/b&gt;Block end&lt;br&gt;&lt;b&gt;&lt;/b&gt;" style="rounded=0;whiteSpace=wrap;html=1;" parent="1" vertex="1">
          <mxGeometry x="880" y="280" width="80" height="40" as="geometry" />
        </mxCell>
        <mxCell id="sH1_CeJIT8sASiw-qS2--25" style="edgeStyle=orthogonalEdgeStyle;rounded=0;orthogonalLoop=1;jettySize=auto;html=1;entryX=0;entryY=0.5;entryDx=0;entryDy=0;" parent="1" source="sH1_CeJIT8sASiw-qS2--23" target="sH1_CeJIT8sASiw-qS2--22" edge="1">
          <mxGeometry relative="1" as="geometry" />
        </mxCell>
        <mxCell id="sH1_CeJIT8sASiw-qS2--27" style="edgeStyle=orthogonalEdgeStyle;rounded=0;orthogonalLoop=1;jettySize=auto;html=1;entryX=0;entryY=0.5;entryDx=0;entryDy=0;" parent="1" source="sH1_CeJIT8sASiw-qS2--23" target="sH1_CeJIT8sASiw-qS2--26" edge="1">
          <mxGeometry relative="1" as="geometry" />
        </mxCell>
        <mxCell id="sH1_CeJIT8sASiw-qS2--23" value="&lt;b&gt;Operator&lt;br&gt;&lt;/b&gt;Block end" style="rounded=0;whiteSpace=wrap;html=1;" parent="1" vertex="1">
          <mxGeometry x="160" y="280" width="80" height="40" as="geometry" />
        </mxCell>
        <mxCell id="sH1_CeJIT8sASiw-qS2--31" style="edgeStyle=orthogonalEdgeStyle;rounded=0;orthogonalLoop=1;jettySize=auto;html=1;" parent="1" source="sH1_CeJIT8sASiw-qS2--26" edge="1">
          <mxGeometry relative="1" as="geometry">
            <mxPoint x="759.9999999999998" y="300" as="targetPoint" />
          </mxGeometry>
        </mxCell>
        <mxCell id="sH1_CeJIT8sASiw-qS2--32" style="edgeStyle=orthogonalEdgeStyle;rounded=0;orthogonalLoop=1;jettySize=auto;html=1;" parent="1" source="sH1_CeJIT8sASiw-qS2--26" edge="1">
          <mxGeometry relative="1" as="geometry">
            <mxPoint x="380" y="340" as="targetPoint" />
            <Array as="points">
              <mxPoint x="760" y="340" />
              <mxPoint x="760" y="380" />
            </Array>
          </mxGeometry>
        </mxCell>
        <mxCell id="sH1_CeJIT8sASiw-qS2--26" value="Statement" style="rounded=1;whiteSpace=wrap;html=1;" parent="1" vertex="1">
          <mxGeometry x="520" y="320" width="80" height="40" as="geometry" />
        </mxCell>
        <mxCell id="sH1_CeJIT8sASiw-qS2--35" style="edgeStyle=orthogonalEdgeStyle;rounded=0;orthogonalLoop=1;jettySize=auto;html=1;entryX=0;entryY=0.5;entryDx=0;entryDy=0;" parent="1" source="sH1_CeJIT8sASiw-qS2--33" target="sH1_CeJIT8sASiw-qS2--34" edge="1">
          <mxGeometry relative="1" as="geometry" />
        </mxCell>
        <mxCell id="sH1_CeJIT8sASiw-qS2--33" value="on&lt;br&gt;declaration" style="rounded=1;whiteSpace=wrap;html=1;" parent="1" vertex="1">
          <mxGeometry x="40" y="440" width="80" height="40" as="geometry" />
        </mxCell>
        <mxCell id="sH1_CeJIT8sASiw-qS2--37" style="edgeStyle=orthogonalEdgeStyle;rounded=0;orthogonalLoop=1;jettySize=auto;html=1;entryX=0;entryY=0.5;entryDx=0;entryDy=0;" parent="1" source="sH1_CeJIT8sASiw-qS2--34" target="sH1_CeJIT8sASiw-qS2--36" edge="1">
          <mxGeometry relative="1" as="geometry" />
        </mxCell>
        <mxCell id="sH1_CeJIT8sASiw-qS2--34" value="&lt;b&gt;Keyword&lt;br&gt;&lt;/b&gt;on&lt;br&gt;&lt;b&gt;&lt;/b&gt;" style="rounded=0;whiteSpace=wrap;html=1;" parent="1" vertex="1">
          <mxGeometry x="160" y="440" width="80" height="40" as="geometry" />
        </mxCell>
        <mxCell id="sH1_CeJIT8sASiw-qS2--40" style="edgeStyle=orthogonalEdgeStyle;rounded=0;orthogonalLoop=1;jettySize=auto;html=1;entryX=0;entryY=0.5;entryDx=0;entryDy=0;" parent="1" source="sH1_CeJIT8sASiw-qS2--36" target="sH1_CeJIT8sASiw-qS2--39" edge="1">
          <mxGeometry relative="1" as="geometry" />
        </mxCell>
        <mxCell id="sH1_CeJIT8sASiw-qS2--36" value="&lt;b&gt;Identifier&lt;/b&gt;" style="rounded=0;whiteSpace=wrap;html=1;" parent="1" vertex="1">
          <mxGeometry x="280" y="440" width="80" height="40" as="geometry" />
        </mxCell>
        <mxCell id="sH1_CeJIT8sASiw-qS2--42" style="edgeStyle=orthogonalEdgeStyle;rounded=0;orthogonalLoop=1;jettySize=auto;html=1;entryX=0;entryY=0.5;entryDx=0;entryDy=0;" parent="1" source="sH1_CeJIT8sASiw-qS2--39" target="sH1_CeJIT8sASiw-qS2--41" edge="1">
          <mxGeometry relative="1" as="geometry" />
        </mxCell>
        <mxCell id="sH1_CeJIT8sASiw-qS2--39" value="Parameter&lt;br&gt;list" style="rounded=1;whiteSpace=wrap;html=1;" parent="1" vertex="1">
          <mxGeometry x="400" y="440" width="80" height="40" as="geometry" />
        </mxCell>
        <mxCell id="sH1_CeJIT8sASiw-qS2--41" value="Block" style="rounded=1;whiteSpace=wrap;html=1;" parent="1" vertex="1">
          <mxGeometry x="520" y="440" width="80" height="40" as="geometry" />
        </mxCell>
        <mxCell id="sH1_CeJIT8sASiw-qS2--53" style="edgeStyle=orthogonalEdgeStyle;rounded=0;orthogonalLoop=1;jettySize=auto;html=1;entryX=0;entryY=0.5;entryDx=0;entryDy=0;" parent="1" source="sH1_CeJIT8sASiw-qS2--43" target="sH1_CeJIT8sASiw-qS2--44" edge="1">
          <mxGeometry relative="1" as="geometry" />
        </mxCell>
        <mxCell id="sH1_CeJIT8sASiw-qS2--43" value="process&lt;br&gt;declaration" style="rounded=1;whiteSpace=wrap;html=1;" parent="1" vertex="1">
          <mxGeometry x="40" y="500" width="80" height="40" as="geometry" />
        </mxCell>
        <mxCell id="sH1_CeJIT8sASiw-qS2--54" style="edgeStyle=orthogonalEdgeStyle;rounded=0;orthogonalLoop=1;jettySize=auto;html=1;entryX=0;entryY=0.5;entryDx=0;entryDy=0;" parent="1" source="sH1_CeJIT8sASiw-qS2--44" target="sH1_CeJIT8sASiw-qS2--45" edge="1">
          <mxGeometry relative="1" as="geometry" />
        </mxCell>
        <mxCell id="sH1_CeJIT8sASiw-qS2--44" value="&lt;b&gt;Keyword&lt;br&gt;&lt;/b&gt;process&lt;br&gt;&lt;b&gt;&lt;/b&gt;" style="rounded=0;whiteSpace=wrap;html=1;" parent="1" vertex="1">
          <mxGeometry x="160" y="500" width="80" height="40" as="geometry" />
        </mxCell>
        <mxCell id="sH1_CeJIT8sASiw-qS2--56" style="edgeStyle=orthogonalEdgeStyle;rounded=0;orthogonalLoop=1;jettySize=auto;html=1;entryX=0;entryY=0.5;entryDx=0;entryDy=0;" parent="1" source="sH1_CeJIT8sASiw-qS2--45" target="sH1_CeJIT8sASiw-qS2--46" edge="1">
          <mxGeometry relative="1" as="geometry" />
        </mxCell>
        <mxCell id="sH1_CeJIT8sASiw-qS2--45" value="&lt;b&gt;Identifier&lt;/b&gt;" style="rounded=0;whiteSpace=wrap;html=1;" parent="1" vertex="1">
          <mxGeometry x="280" y="500" width="80" height="40" as="geometry" />
        </mxCell>
        <mxCell id="sH1_CeJIT8sASiw-qS2--57" style="edgeStyle=orthogonalEdgeStyle;rounded=0;orthogonalLoop=1;jettySize=auto;html=1;entryX=0;entryY=0.5;entryDx=0;entryDy=0;" parent="1" source="sH1_CeJIT8sASiw-qS2--46" target="sH1_CeJIT8sASiw-qS2--47" edge="1">
          <mxGeometry relative="1" as="geometry" />
        </mxCell>
        <mxCell id="sH1_CeJIT8sASiw-qS2--46" value="Parameter&lt;br&gt;list" style="rounded=1;whiteSpace=wrap;html=1;" parent="1" vertex="1">
          <mxGeometry x="400" y="500" width="80" height="40" as="geometry" />
        </mxCell>
        <mxCell id="sH1_CeJIT8sASiw-qS2--47" value="Block" style="rounded=1;whiteSpace=wrap;html=1;" parent="1" vertex="1">
          <mxGeometry x="520" y="500" width="80" height="40" as="geometry" />
        </mxCell>
        <mxCell id="sH1_CeJIT8sASiw-qS2--60" style="edgeStyle=orthogonalEdgeStyle;rounded=0;orthogonalLoop=1;jettySize=auto;html=1;entryX=0;entryY=0.5;entryDx=0;entryDy=0;" parent="1" source="sH1_CeJIT8sASiw-qS2--48" target="sH1_CeJIT8sASiw-qS2--49" edge="1">
          <mxGeometry relative="1" as="geometry" />
        </mxCell>
        <mxCell id="sH1_CeJIT8sASiw-qS2--48" value="Function&lt;br&gt;declaration" style="rounded=1;whiteSpace=wrap;html=1;" parent="1" vertex="1">
          <mxGeometry x="40" y="560" width="80" height="40" as="geometry" />
        </mxCell>
        <mxCell id="sH1_CeJIT8sASiw-qS2--61" style="edgeStyle=orthogonalEdgeStyle;rounded=0;orthogonalLoop=1;jettySize=auto;html=1;entryX=0;entryY=0.5;entryDx=0;entryDy=0;" parent="1" source="sH1_CeJIT8sASiw-qS2--49" target="sH1_CeJIT8sASiw-qS2--50" edge="1">
          <mxGeometry relative="1" as="geometry" />
        </mxCell>
        <mxCell id="sH1_CeJIT8sASiw-qS2--49" value="&lt;b&gt;Keyword&lt;br&gt;&lt;/b&gt;on&lt;br&gt;&lt;b&gt;&lt;/b&gt;" style="rounded=0;whiteSpace=wrap;html=1;" parent="1" vertex="1">
          <mxGeometry x="160" y="560" width="80" height="40" as="geometry" />
        </mxCell>
        <mxCell id="sH1_CeJIT8sASiw-qS2--62" style="edgeStyle=orthogonalEdgeStyle;rounded=0;orthogonalLoop=1;jettySize=auto;html=1;entryX=0;entryY=0.5;entryDx=0;entryDy=0;" parent="1" source="sH1_CeJIT8sASiw-qS2--50" target="sH1_CeJIT8sASiw-qS2--51" edge="1">
          <mxGeometry relative="1" as="geometry" />
        </mxCell>
        <mxCell id="sH1_CeJIT8sASiw-qS2--50" value="&lt;b&gt;Identifier&lt;/b&gt;" style="rounded=0;whiteSpace=wrap;html=1;" parent="1" vertex="1">
          <mxGeometry x="280" y="560" width="80" height="40" as="geometry" />
        </mxCell>
        <mxCell id="sH1_CeJIT8sASiw-qS2--59" style="edgeStyle=orthogonalEdgeStyle;rounded=0;orthogonalLoop=1;jettySize=auto;html=1;entryX=0;entryY=0.5;entryDx=0;entryDy=0;" parent="1" source="sH1_CeJIT8sASiw-qS2--51" target="sH1_CeJIT8sASiw-qS2--58" edge="1">
          <mxGeometry relative="1" as="geometry" />
        </mxCell>
        <mxCell id="sH1_CeJIT8sASiw-qS2--51" value="Parameter&lt;br&gt;list" style="rounded=1;whiteSpace=wrap;html=1;" parent="1" vertex="1">
          <mxGeometry x="400" y="560" width="80" height="40" as="geometry" />
        </mxCell>
        <mxCell id="sH1_CeJIT8sASiw-qS2--52" value="Block" style="rounded=1;whiteSpace=wrap;html=1;" parent="1" vertex="1">
          <mxGeometry x="640" y="560" width="80" height="40" as="geometry" />
        </mxCell>
        <mxCell id="sH1_CeJIT8sASiw-qS2--63" style="edgeStyle=orthogonalEdgeStyle;rounded=0;orthogonalLoop=1;jettySize=auto;html=1;entryX=0;entryY=0.5;entryDx=0;entryDy=0;" parent="1" source="sH1_CeJIT8sASiw-qS2--58" target="sH1_CeJIT8sASiw-qS2--52" edge="1">
          <mxGeometry relative="1" as="geometry" />
        </mxCell>
        <mxCell id="sH1_CeJIT8sASiw-qS2--58" value="Type specifier" style="rounded=1;whiteSpace=wrap;html=1;" parent="1" vertex="1">
          <mxGeometry x="520" y="560" width="80" height="40" as="geometry" />
        </mxCell>
        <mxCell id="sH1_CeJIT8sASiw-qS2--70" style="edgeStyle=orthogonalEdgeStyle;rounded=0;orthogonalLoop=1;jettySize=auto;html=1;entryX=0;entryY=0.5;entryDx=0;entryDy=0;" parent="1" source="sH1_CeJIT8sASiw-qS2--64" target="sH1_CeJIT8sASiw-qS2--65" edge="1">
          <mxGeometry relative="1" as="geometry" />
        </mxCell>
        <mxCell id="sH1_CeJIT8sASiw-qS2--71" style="edgeStyle=orthogonalEdgeStyle;rounded=0;orthogonalLoop=1;jettySize=auto;html=1;entryX=0;entryY=0.5;entryDx=0;entryDy=0;" parent="1" source="sH1_CeJIT8sASiw-qS2--64" target="sH1_CeJIT8sASiw-qS2--67" edge="1">
          <mxGeometry relative="1" as="geometry" />
        </mxCell>
        <mxCell id="sH1_CeJIT8sASiw-qS2--72" style="edgeStyle=orthogonalEdgeStyle;rounded=0;orthogonalLoop=1;jettySize=auto;html=1;entryX=0;entryY=0.5;entryDx=0;entryDy=0;" parent="1" source="sH1_CeJIT8sASiw-qS2--64" target="sH1_CeJIT8sASiw-qS2--68" edge="1">
          <mxGeometry relative="1" as="geometry" />
        </mxCell>
        <mxCell id="sH1_CeJIT8sASiw-qS2--73" style="edgeStyle=orthogonalEdgeStyle;rounded=0;orthogonalLoop=1;jettySize=auto;html=1;entryX=0;entryY=0.5;entryDx=0;entryDy=0;" parent="1" source="sH1_CeJIT8sASiw-qS2--64" target="sH1_CeJIT8sASiw-qS2--69" edge="1">
          <mxGeometry relative="1" as="geometry" />
        </mxCell>
        <mxCell id="sH1_CeJIT8sASiw-qS2--64" value="Variable&lt;br&gt;declaration" style="rounded=1;whiteSpace=wrap;html=1;" parent="1" vertex="1">
          <mxGeometry x="40" y="640" width="80" height="40" as="geometry" />
        </mxCell>
        <mxCell id="sH1_CeJIT8sASiw-qS2--78" style="edgeStyle=orthogonalEdgeStyle;rounded=0;orthogonalLoop=1;jettySize=auto;html=1;entryX=0;entryY=0.5;entryDx=0;entryDy=0;" parent="1" source="sH1_CeJIT8sASiw-qS2--65" target="sH1_CeJIT8sASiw-qS2--77" edge="1">
          <mxGeometry relative="1" as="geometry" />
        </mxCell>
        <mxCell id="sH1_CeJIT8sASiw-qS2--65" value="&lt;b&gt;Keyword&lt;br&gt;&lt;/b&gt;var&lt;br&gt;&lt;b&gt;&lt;/b&gt;" style="rounded=0;whiteSpace=wrap;html=1;" parent="1" vertex="1">
          <mxGeometry x="280" y="640" width="80" height="40" as="geometry" />
        </mxCell>
        <mxCell id="sH1_CeJIT8sASiw-qS2--75" style="edgeStyle=orthogonalEdgeStyle;rounded=0;orthogonalLoop=1;jettySize=auto;html=1;entryX=0;entryY=0.5;entryDx=0;entryDy=0;" parent="1" source="sH1_CeJIT8sASiw-qS2--67" target="sH1_CeJIT8sASiw-qS2--65" edge="1">
          <mxGeometry relative="1" as="geometry" />
        </mxCell>
        <mxCell id="sH1_CeJIT8sASiw-qS2--67" value="&lt;b&gt;Keyword&lt;br&gt;&lt;/b&gt;local" style="rounded=0;whiteSpace=wrap;html=1;" parent="1" vertex="1">
          <mxGeometry x="160" y="700" width="80" height="40" as="geometry" />
        </mxCell>
        <mxCell id="sH1_CeJIT8sASiw-qS2--76" style="edgeStyle=orthogonalEdgeStyle;rounded=0;orthogonalLoop=1;jettySize=auto;html=1;entryX=0;entryY=0.5;entryDx=0;entryDy=0;" parent="1" source="sH1_CeJIT8sASiw-qS2--68" target="sH1_CeJIT8sASiw-qS2--65" edge="1">
          <mxGeometry relative="1" as="geometry" />
        </mxCell>
        <mxCell id="sH1_CeJIT8sASiw-qS2--68" value="&lt;b&gt;Keyword&lt;br&gt;&lt;/b&gt;global&lt;br&gt;&lt;b&gt;&lt;/b&gt;" style="rounded=0;whiteSpace=wrap;html=1;" parent="1" vertex="1">
          <mxGeometry x="160" y="750" width="80" height="40" as="geometry" />
        </mxCell>
        <mxCell id="sH1_CeJIT8sASiw-qS2--74" style="edgeStyle=orthogonalEdgeStyle;rounded=0;orthogonalLoop=1;jettySize=auto;html=1;entryX=0;entryY=0.5;entryDx=0;entryDy=0;" parent="1" source="sH1_CeJIT8sASiw-qS2--69" target="sH1_CeJIT8sASiw-qS2--65" edge="1">
          <mxGeometry relative="1" as="geometry" />
        </mxCell>
        <mxCell id="sH1_CeJIT8sASiw-qS2--69" value="&lt;b&gt;Keyword&lt;br&gt;&lt;/b&gt;save&lt;br&gt;&lt;b&gt;&lt;/b&gt;" style="rounded=0;whiteSpace=wrap;html=1;" parent="1" vertex="1">
          <mxGeometry x="160" y="800" width="80" height="40" as="geometry" />
        </mxCell>
        <mxCell id="sH1_CeJIT8sASiw-qS2--80" style="edgeStyle=orthogonalEdgeStyle;rounded=0;orthogonalLoop=1;jettySize=auto;html=1;entryX=0;entryY=0.5;entryDx=0;entryDy=0;" parent="1" source="sH1_CeJIT8sASiw-qS2--77" target="sH1_CeJIT8sASiw-qS2--79" edge="1">
          <mxGeometry relative="1" as="geometry" />
        </mxCell>
        <mxCell id="sH1_CeJIT8sASiw-qS2--77" value="&lt;b&gt;Identifier&lt;/b&gt;" style="rounded=0;whiteSpace=wrap;html=1;" parent="1" vertex="1">
          <mxGeometry x="400" y="640" width="80" height="40" as="geometry" />
        </mxCell>
        <mxCell id="sH1_CeJIT8sASiw-qS2--82" style="edgeStyle=orthogonalEdgeStyle;rounded=0;orthogonalLoop=1;jettySize=auto;html=1;entryX=0;entryY=0.5;entryDx=0;entryDy=0;" parent="1" source="sH1_CeJIT8sASiw-qS2--79" target="sH1_CeJIT8sASiw-qS2--81" edge="1">
          <mxGeometry relative="1" as="geometry" />
        </mxCell>
        <mxCell id="sH1_CeJIT8sASiw-qS2--90" style="edgeStyle=orthogonalEdgeStyle;rounded=0;orthogonalLoop=1;jettySize=auto;html=1;entryX=0;entryY=0.5;entryDx=0;entryDy=0;" parent="1" source="sH1_CeJIT8sASiw-qS2--79" target="sH1_CeJIT8sASiw-qS2--86" edge="1">
          <mxGeometry relative="1" as="geometry" />
        </mxCell>
        <mxCell id="sH1_CeJIT8sASiw-qS2--79" value="Type specifier" style="rounded=1;whiteSpace=wrap;html=1;" parent="1" vertex="1">
          <mxGeometry x="520" y="640" width="80" height="40" as="geometry" />
        </mxCell>
        <mxCell id="sH1_CeJIT8sASiw-qS2--88" style="edgeStyle=orthogonalEdgeStyle;rounded=0;orthogonalLoop=1;jettySize=auto;html=1;entryX=0;entryY=0.5;entryDx=0;entryDy=0;" parent="1" source="sH1_CeJIT8sASiw-qS2--81" target="sH1_CeJIT8sASiw-qS2--87" edge="1">
          <mxGeometry relative="1" as="geometry" />
        </mxCell>
        <mxCell id="sH1_CeJIT8sASiw-qS2--81" value="&lt;b&gt;Operator&lt;br&gt;&lt;/b&gt;Set&lt;br&gt;&lt;b&gt;&lt;/b&gt;" style="rounded=0;whiteSpace=wrap;html=1;" parent="1" vertex="1">
          <mxGeometry x="640" y="700" width="80" height="40" as="geometry" />
        </mxCell>
        <mxCell id="sH1_CeJIT8sASiw-qS2--85" value="END" style="rounded=0;whiteSpace=wrap;html=1;" parent="1" vertex="1">
          <mxGeometry x="1040" y="280" width="80" height="40" as="geometry" />
        </mxCell>
        <mxCell id="sH1_CeJIT8sASiw-qS2--86" value="END" style="rounded=0;whiteSpace=wrap;html=1;" parent="1" vertex="1">
          <mxGeometry x="1040" y="640" width="80" height="40" as="geometry" />
        </mxCell>
        <mxCell id="sH1_CeJIT8sASiw-qS2--89" style="edgeStyle=orthogonalEdgeStyle;rounded=0;orthogonalLoop=1;jettySize=auto;html=1;entryX=0;entryY=0.5;entryDx=0;entryDy=0;" parent="1" source="sH1_CeJIT8sASiw-qS2--87" target="sH1_CeJIT8sASiw-qS2--86" edge="1">
          <mxGeometry relative="1" as="geometry" />
        </mxCell>
        <mxCell id="sH1_CeJIT8sASiw-qS2--87" value="Expression" style="rounded=1;whiteSpace=wrap;html=1;" parent="1" vertex="1">
          <mxGeometry x="760" y="700" width="80" height="40" as="geometry" />
        </mxCell>
        <mxCell id="tbKid1yF_FCcdKco9LSs-3" style="edgeStyle=orthogonalEdgeStyle;rounded=0;orthogonalLoop=1;jettySize=auto;html=1;entryX=0;entryY=0.5;entryDx=0;entryDy=0;" edge="1" parent="1" source="tbKid1yF_FCcdKco9LSs-1" target="tbKid1yF_FCcdKco9LSs-2">
          <mxGeometry relative="1" as="geometry" />
        </mxCell>
        <mxCell id="tbKid1yF_FCcdKco9LSs-1" value="Conditional" style="rounded=1;whiteSpace=wrap;html=1;" vertex="1" parent="1">
          <mxGeometry x="40" y="880" width="80" height="40" as="geometry" />
        </mxCell>
        <mxCell id="tbKid1yF_FCcdKco9LSs-5" style="edgeStyle=orthogonalEdgeStyle;rounded=0;orthogonalLoop=1;jettySize=auto;html=1;entryX=0;entryY=0.5;entryDx=0;entryDy=0;" edge="1" parent="1" source="tbKid1yF_FCcdKco9LSs-2" target="tbKid1yF_FCcdKco9LSs-4">
          <mxGeometry relative="1" as="geometry" />
        </mxCell>
        <mxCell id="tbKid1yF_FCcdKco9LSs-2" value="&lt;b&gt;Keyword&lt;br&gt;&lt;/b&gt;if&lt;br&gt;&lt;b&gt;&lt;/b&gt;" style="rounded=0;whiteSpace=wrap;html=1;" vertex="1" parent="1">
          <mxGeometry x="160" y="880" width="80" height="40" as="geometry" />
        </mxCell>
        <mxCell id="tbKid1yF_FCcdKco9LSs-7" style="edgeStyle=orthogonalEdgeStyle;rounded=0;orthogonalLoop=1;jettySize=auto;html=1;entryX=0;entryY=0.5;entryDx=0;entryDy=0;" edge="1" parent="1" source="tbKid1yF_FCcdKco9LSs-4" target="tbKid1yF_FCcdKco9LSs-6">
          <mxGeometry relative="1" as="geometry" />
        </mxCell>
        <mxCell id="tbKid1yF_FCcdKco9LSs-12" style="edgeStyle=orthogonalEdgeStyle;rounded=0;orthogonalLoop=1;jettySize=auto;html=1;entryX=0;entryY=0.5;entryDx=0;entryDy=0;" edge="1" parent="1" source="tbKid1yF_FCcdKco9LSs-4" target="tbKid1yF_FCcdKco9LSs-11">
          <mxGeometry relative="1" as="geometry" />
        </mxCell>
        <mxCell id="tbKid1yF_FCcdKco9LSs-4" value="Expression" style="rounded=1;whiteSpace=wrap;html=1;" vertex="1" parent="1">
          <mxGeometry x="280" y="880" width="80" height="40" as="geometry" />
        </mxCell>
        <mxCell id="tbKid1yF_FCcdKco9LSs-10" style="edgeStyle=orthogonalEdgeStyle;rounded=0;orthogonalLoop=1;jettySize=auto;html=1;entryX=0;entryY=0.5;entryDx=0;entryDy=0;" edge="1" parent="1" source="tbKid1yF_FCcdKco9LSs-6" target="tbKid1yF_FCcdKco9LSs-9">
          <mxGeometry relative="1" as="geometry">
            <Array as="points">
              <mxPoint x="620" y="870" />
              <mxPoint x="620" y="900" />
            </Array>
          </mxGeometry>
        </mxCell>
        <mxCell id="tbKid1yF_FCcdKco9LSs-6" value="Block" style="rounded=1;whiteSpace=wrap;html=1;" vertex="1" parent="1">
          <mxGeometry x="400" y="850" width="80" height="40" as="geometry" />
        </mxCell>
        <mxCell id="tbKid1yF_FCcdKco9LSs-9" value="END" style="rounded=0;whiteSpace=wrap;html=1;" vertex="1" parent="1">
          <mxGeometry x="1040" y="880" width="80" height="40" as="geometry" />
        </mxCell>
        <mxCell id="tbKid1yF_FCcdKco9LSs-13" style="edgeStyle=orthogonalEdgeStyle;rounded=0;orthogonalLoop=1;jettySize=auto;html=1;entryX=0;entryY=0.5;entryDx=0;entryDy=0;" edge="1" parent="1" source="tbKid1yF_FCcdKco9LSs-11" target="tbKid1yF_FCcdKco9LSs-9">
          <mxGeometry relative="1" as="geometry">
            <Array as="points">
              <mxPoint x="620" y="930" />
              <mxPoint x="620" y="900" />
            </Array>
          </mxGeometry>
        </mxCell>
        <mxCell id="tbKid1yF_FCcdKco9LSs-23" style="edgeStyle=orthogonalEdgeStyle;rounded=0;orthogonalLoop=1;jettySize=auto;html=1;entryX=0;entryY=0.5;entryDx=0;entryDy=0;" edge="1" parent="1" target="tbKid1yF_FCcdKco9LSs-16">
          <mxGeometry relative="1" as="geometry">
            <mxPoint x="680" y="900" as="sourcePoint" />
            <Array as="points">
              <mxPoint x="680" y="930" />
              <mxPoint x="680" y="970" />
            </Array>
          </mxGeometry>
        </mxCell>
        <mxCell id="tbKid1yF_FCcdKco9LSs-11" value="Statement" style="rounded=1;whiteSpace=wrap;html=1;" vertex="1" parent="1">
          <mxGeometry x="400" y="910" width="80" height="40" as="geometry" />
        </mxCell>
        <mxCell id="tbKid1yF_FCcdKco9LSs-20" style="edgeStyle=orthogonalEdgeStyle;rounded=0;orthogonalLoop=1;jettySize=auto;html=1;entryX=0;entryY=0.5;entryDx=0;entryDy=0;" edge="1" parent="1" source="tbKid1yF_FCcdKco9LSs-16" target="tbKid1yF_FCcdKco9LSs-18">
          <mxGeometry relative="1" as="geometry" />
        </mxCell>
        <mxCell id="tbKid1yF_FCcdKco9LSs-21" style="edgeStyle=orthogonalEdgeStyle;rounded=0;orthogonalLoop=1;jettySize=auto;html=1;entryX=0;entryY=0.5;entryDx=0;entryDy=0;" edge="1" parent="1" source="tbKid1yF_FCcdKco9LSs-16" target="tbKid1yF_FCcdKco9LSs-19">
          <mxGeometry relative="1" as="geometry" />
        </mxCell>
        <mxCell id="tbKid1yF_FCcdKco9LSs-16" value="&lt;b&gt;Keyword&lt;br&gt;&lt;/b&gt;else&lt;br&gt;&lt;b&gt;&lt;/b&gt;" style="rounded=0;whiteSpace=wrap;html=1;" vertex="1" parent="1">
          <mxGeometry x="720" y="950" width="80" height="40" as="geometry" />
        </mxCell>
        <mxCell id="tbKid1yF_FCcdKco9LSs-25" style="edgeStyle=orthogonalEdgeStyle;rounded=0;orthogonalLoop=1;jettySize=auto;html=1;entryX=0;entryY=0.5;entryDx=0;entryDy=0;" edge="1" parent="1" source="tbKid1yF_FCcdKco9LSs-18" target="tbKid1yF_FCcdKco9LSs-9">
          <mxGeometry relative="1" as="geometry" />
        </mxCell>
        <mxCell id="tbKid1yF_FCcdKco9LSs-18" value="Block" style="rounded=1;whiteSpace=wrap;html=1;" vertex="1" parent="1">
          <mxGeometry x="840" y="920" width="80" height="40" as="geometry" />
        </mxCell>
        <mxCell id="tbKid1yF_FCcdKco9LSs-24" style="edgeStyle=orthogonalEdgeStyle;rounded=0;orthogonalLoop=1;jettySize=auto;html=1;entryX=0;entryY=0.5;entryDx=0;entryDy=0;" edge="1" parent="1" source="tbKid1yF_FCcdKco9LSs-19" target="tbKid1yF_FCcdKco9LSs-9">
          <mxGeometry relative="1" as="geometry" />
        </mxCell>
        <mxCell id="tbKid1yF_FCcdKco9LSs-19" value="Statement" style="rounded=1;whiteSpace=wrap;html=1;" vertex="1" parent="1">
          <mxGeometry x="840" y="980" width="80" height="40" as="geometry" />
        </mxCell>
      </root>
    </mxGraphModel>
  </diagram>
</mxfile>
